<?xml version="1.0" standalone="no"?>
<!DOCTYPE svg PUBLIC "-//W3C//DTD SVG 20010904//EN"
 "http://www.w3.org/TR/2001/REC-SVG-20010904/DTD/svg10.dtd">
<svg version="1.0" xmlns="http://www.w3.org/2000/svg"
 width="819.000000pt" height="814.000000pt" viewBox="0 0 819.000000 814.000000"
 preserveAspectRatio="xMidYMid meet">

<g transform="translate(0.000000,814.000000) scale(0.100000,-0.100000)"
fill="#000000" stroke="none">
<path d="M3735 7930 c-636 -53 -1282 -284 -1830 -655 -311 -210 -655 -537
-880 -834 -520 -686 -786 -1470 -788 -2321 -1 -239 9 -376 44 -602 101 -660
378 -1285 808 -1817 112 -139 132 -162 288 -317 292 -291 609 -517 993 -709
186 -92 371 -167 570 -228 363 -113 733 -167 1140 -167 610 0 1178 137 1725
415 182 92 211 109 410 242 524 347 993 879 1280 1452 382 762 499 1629 334
2471 -103 526 -334 1056 -645 1482 -123 168 -164 218 -286 353 -383 424 -879
765 -1418 978 -357 140 -667 215 -1050 252 -153 15 -539 18 -695 5z m685 -51
c1193 -109 2262 -780 2895 -1819 68 -111 196 -364 253 -500 57 -136 138 -383
177 -542 116 -473 141 -984 69 -1463 -104 -702 -404 -1361 -863 -1900 -584
-684 -1395 -1139 -2291 -1284 -243 -40 -689 -54 -936 -31 -648 62 -1258 281
-1789 643 -204 139 -352 263 -550 461 -287 288 -493 569 -681 931 -379 732
-507 1564 -365 2390 61 353 166 672 336 1020 166 339 365 627 623 904 573 614
1331 1021 2152 1154 332 54 643 66 970 36z"/>
<path d="M4127 7763 c-64 -45 -46 -52 40 -16 29 11 33 16 23 28 -16 20 -19 19
-63 -12z"/>
<path d="M3958 7688 c21 -11 22 -16 22 -133 0 -111 2 -125 23 -156 28 -41 85
-63 142 -54 82 13 115 60 115 165 0 58 1 60 25 60 43 0 94 27 105 55 19 50 13
65 -25 65 -34 0 -35 -1 -35 -38 0 -43 -14 -62 -47 -62 -20 0 -23 5 -23 34 0
19 7 41 15 49 13 13 9 15 -30 19 -25 2 -45 0 -45 -4 0 -5 7 -8 16 -8 14 0 16
-16 13 -131 -4 -129 -4 -131 -32 -155 -34 -29 -85 -32 -118 -5 -23 18 -24 27
-28 147 -3 124 -3 128 20 145 24 18 23 19 -56 18 -65 0 -76 -2 -57 -11z"/>
<path d="M3569 7665 c-63 -20 -116 -75 -125 -131 -13 -90 21 -170 86 -201 41
-19 128 -21 188 -4 l43 12 -7 59 c-5 42 -3 64 6 75 7 9 11 17 9 19 -8 7 -139
-17 -139 -26 0 -4 9 -8 19 -8 25 0 27 -4 36 -67 l7 -53 -45 0 c-84 0 -130 65
-130 182 0 84 27 118 105 133 35 7 38 5 52 -29 8 -20 17 -36 20 -36 4 0 6 20
6 45 l0 45 -42 -1 c-24 0 -64 -7 -89 -14z"/>
<path d="M4494 7665 c18 -14 19 -20 7 -97 -29 -195 -31 -206 -54 -213 -22 -6
-22 -6 -2 -15 11 -5 35 -9 54 -9 31 -1 33 0 17 12 -17 13 -17 18 0 130 10 65
21 114 26 109 8 -8 131 -218 152 -259 20 -40 44 -29 52 25 36 241 39 257 62
260 12 2 22 7 22 11 0 8 -57 21 -94 21 -17 0 -17 -1 1 -17 19 -17 20 -21 6
-110 -9 -51 -19 -91 -23 -88 -5 3 -38 58 -75 123 -37 64 -68 118 -69 118 0 1
-23 4 -51 8 -46 6 -48 5 -31 -9z"/>
<path d="M3313 7616 c-47 -12 -66 -26 -36 -26 17 0 24 -15 45 -97 15 -54 25
-99 24 -100 -1 -2 -54 36 -117 82 -105 79 -117 85 -149 79 -46 -8 -74 -23 -44
-24 19 0 25 -16 58 -137 20 -76 36 -142 36 -147 0 -5 -8 -15 -17 -22 -23 -17
-4 -18 52 -3 36 11 38 13 19 21 -16 8 -28 35 -52 121 -17 62 -29 113 -27 115
1 2 63 -42 136 -97 74 -56 140 -101 147 -101 17 0 16 10 -25 169 -35 138 -36
144 -18 157 26 19 16 22 -32 10z"/>
<path d="M4955 7572 c-82 -27 -139 -135 -115 -221 5 -20 23 -50 40 -68 33 -35
123 -73 174 -73 32 0 33 2 49 60 14 48 21 60 38 60 36 0 11 17 -52 34 -63 18
-85 15 -55 -7 15 -11 15 -18 5 -65 -14 -58 -29 -65 -80 -35 -39 23 -53 62 -46
133 11 120 89 190 173 155 28 -11 33 -19 36 -52 l3 -38 22 42 23 42 -56 20
c-54 21 -119 26 -159 13z"/>
<path d="M2893 7497 c-40 -15 -52 -27 -26 -27 16 0 27 -19 56 -92 47 -122 51
-143 37 -177 -20 -50 -101 -69 -135 -31 -10 11 -37 68 -61 127 -39 98 -42 108
-26 119 32 24 7 22 -63 -5 -56 -21 -65 -27 -44 -29 24 -3 31 -14 65 -104 63
-162 114 -197 219 -149 88 40 98 81 49 216 -51 143 -49 136 -29 151 23 17 4
18 -42 1z"/>
<path d="M5400 7454 c0 -2 5 -13 12 -23 17 -28 -93 -278 -125 -283 -17 -3 -5
-12 44 -35 98 -45 137 -56 185 -50 114 12 191 159 133 253 -11 18 -34 42 -52
53 -36 22 -197 92 -197 85z m147 -84 c44 -27 56 -54 50 -111 -7 -53 -47 -131
-80 -154 -27 -19 -80 -19 -117 0 -33 17 -35 7 35 160 20 44 41 90 46 103 10
27 25 28 66 2z"/>
<path d="M2485 7331 c-51 -23 -102 -66 -120 -102 -41 -78 3 -201 87 -245 58
-30 155 -10 211 43 34 33 39 67 5 36 -53 -48 -120 -57 -174 -24 -37 23 -84
111 -84 158 0 45 22 86 55 101 37 17 45 15 67 -13 11 -14 23 -25 28 -25 12 0
-13 83 -25 87 -6 1 -28 -6 -50 -16z"/>
<path d="M5778 7269 c20 -21 14 -38 -57 -164 -60 -107 -70 -120 -92 -117 -32
5 -18 -8 54 -48 52 -29 74 -31 46 -3 -9 9 6 44 59 140 56 103 74 128 91 127
34 -1 25 9 -36 41 -69 37 -82 41 -65 24z"/>
<path d="M3930 7234 c-647 -43 -1204 -245 -1710 -618 -377 -278 -713 -679
-924 -1102 -578 -1158 -390 -2548 474 -3499 525 -578 1212 -927 2000 -1016
136 -16 506 -16 640 0 578 66 1096 268 1545 601 494 367 876 883 1082 1460
402 1129 122 2393 -717 3240 -148 150 -266 251 -416 357 -438 310 -922 496
-1452 558 -125 15 -424 26 -522 19z m451 -34 c1069 -106 1997 -738 2478 -1688
226 -447 331 -891 331 -1402 0 -362 -41 -626 -147 -955 -218 -674 -658 -1249
-1258 -1644 -145 -95 -395 -225 -555 -288 -214 -84 -489 -156 -730 -190 -177
-25 -645 -25 -815 0 -725 106 -1333 413 -1820 918 -141 146 -201 217 -295 349
-293 410 -472 851 -552 1365 -26 165 -36 560 -19 733 66 656 313 1238 737
1732 508 593 1232 977 2009 1064 146 17 495 20 636 6z"/>
<path d="M3865 6640 c-130 -8 -459 -43 -532 -56 l-33 -6 -2 -722 -3 -721 -60
3 c-73 3 -212 27 -280 49 -27 9 -104 42 -170 74 -221 108 -346 136 -555 126
-211 -10 -368 -76 -505 -212 -67 -66 -85 -91 -106 -145 -32 -85 -32 -205 0
-299 11 -35 21 -88 21 -117 0 -44 -5 -59 -28 -84 -50 -56 -161 -61 -178 -8
-11 36 24 106 72 142 l44 34 -41 6 c-162 26 -300 -118 -316 -329 -7 -88 17
-209 57 -290 31 -64 129 -189 156 -199 9 -4 58 -11 108 -16 411 -43 865 -5
1211 101 99 30 103 32 114 68 7 20 15 71 18 113 l6 77 -34 32 c-33 31 -34 31
-107 24 l-73 -7 7 29 c26 107 139 244 240 290 50 23 73 26 204 31 82 2 160 2
174 -2 l26 -6 0 -381 c0 -299 3 -395 15 -453 58 -280 238 -466 545 -564 143
-45 277 -69 496 -87 l71 -6 7 32 c3 17 6 553 6 1190 l0 1159 113 0 c524 -1
991 -238 1255 -635 162 -245 240 -506 249 -832 6 -206 -6 -344 -44 -522 -14
-64 -25 -126 -25 -138 0 -13 -4 -21 -8 -18 -5 3 -9 -3 -8 -12 0 -10 -11 -53
-26 -96 -14 -43 -26 -86 -26 -96 0 -11 -5 -21 -11 -23 -6 -2 -12 -24 -14 -48
-1 -25 0 -31 2 -15 3 19 19 43 45 65 39 34 40 38 29 65 -11 29 -11 29 -6 3 4
-22 2 -27 -15 -25 -24 2 -24 -1 -1 45 10 20 16 44 14 52 -4 13 -3 13 7 0 9
-12 10 -9 6 15 -5 21 -4 26 3 16 7 -11 10 -9 14 10 2 13 2 8 0 -11 -3 -19 -5
-44 -4 -55 0 -16 -2 -17 -10 -5 -8 11 -9 9 -3 -10 18 -64 22 -70 56 -68 l33 1
-31 4 c-26 3 -33 9 -36 32 -6 43 1 51 43 51 27 0 39 4 39 14 0 10 22 16 80 21
51 4 83 12 88 21 5 8 33 14 82 17 l75 3 -82 2 c-66 2 -83 5 -83 17 0 12 14 15
68 15 37 0 91 3 120 6 43 6 52 10 52 26 0 19 6 20 78 16 42 -3 60 -3 40 -1
-30 3 -38 9 -38 24 0 17 7 19 80 19 l80 0 0 30 c0 28 2 30 40 30 22 0 40 5 40
10 0 6 16 10 35 10 26 0 35 4 36 18 0 14 1 15 7 1 5 -10 20 -15 50 -13 38 1
42 -1 42 -22 0 -13 4 -24 8 -24 5 0 7 25 4 55 -2 30 -1 67 3 82 7 26 8 26 15
8 12 -28 12 -47 0 -40 -12 7 -11 -37 1 -80 7 -26 8 -24 5 13 -2 23 0 42 5 42
5 0 9 19 9 43 0 26 3 37 9 29 5 -8 12 19 19 70 6 46 11 90 12 98 9 66 9 440 0
540 -47 517 -225 955 -533 1316 -112 131 -205 218 -352 329 -450 339 -1045
563 -1664 625 -149 15 -483 20 -646 10z m-1594 -2100 l114 -5 -87 -68 c-49
-38 -88 -69 -88 -70 0 -1 14 -45 30 -97 16 -52 27 -96 25 -98 -2 -3 -43 23
-90 57 l-85 62 -71 -51 c-113 -82 -118 -79 -69 35 16 39 30 76 30 82 0 7 -36
38 -80 69 -44 30 -82 60 -85 65 -4 5 37 9 99 9 59 0 108 4 111 10 3 6 18 49
32 98 14 48 28 92 31 97 4 6 20 -35 37 -90 l31 -100 115 -5z m4696 -952 c-3
-8 -6 -5 -6 6 -1 11 2 17 5 13 3 -3 4 -12 1 -19z"/>
<path d="M5065 4774 c-11 -3 -143 -46 -292 -96 l-273 -92 0 -228 0 -227 73 31
c39 17 96 41 126 54 29 13 55 24 56 24 2 0 5 -231 6 -514 2 -283 7 -517 11
-521 11 -11 45 4 77 35 17 15 31 25 31 22 0 -4 12 11 27 33 15 22 38 49 51 60
14 11 37 31 52 45 15 14 33 24 39 22 6 -2 10 0 9 5 -4 12 33 65 61 88 13 11
36 31 51 45 15 14 33 24 39 22 6 -2 10 0 9 5 -5 18 65 107 76 96 11 -11 36 20
37 46 1 26 2 25 9 -4 5 -16 7 177 7 431 l-2 461 -30 49 c-40 63 -102 102 -175
108 -30 3 -64 3 -75 0z"/>
<path d="M1074 3806 c-3 -8 -1 -22 4 -32 7 -13 9 -10 8 15 -1 34 -4 38 -12 17z"/>
<path d="M1099 3805 c-4 -47 -3 -63 3 -59 4 3 8 -2 8 -10 0 -10 6 -13 16 -9 9
3 12 8 5 12 -10 7 15 19 79 40 33 10 32 10 -20 6 -32 -2 -47 -1 -36 4 16 6 17
9 4 13 -8 4 -21 2 -29 -2 -8 -6 -16 -4 -21 3 -4 7 -8 8 -9 2z"/>
<path d="M1205 3760 c-9 -14 26 -20 89 -15 89 7 86 20 -5 22 -43 1 -81 -2 -84
-7z m48 -7 c-7 -2 -19 -2 -25 0 -7 3 -2 5 12 5 14 0 19 -2 13 -5z"/>
<path d="M1190 3707 c0 -17 4 -27 8 -21 4 6 15 15 25 21 16 8 16 10 -8 21 -24
11 -25 10 -25 -21z"/>
<path d="M1151 3699 c-14 -40 -14 -39 4 -39 8 0 12 -6 9 -14 -6 -15 10 -29 39
-33 10 -2 17 3 17 12 0 26 36 17 47 -12 10 -26 11 -25 12 20 l1 47 -40 0 c-38
0 -54 -13 -27 -23 7 -4 6 -6 -5 -6 -9 -1 -18 -6 -20 -11 -2 -6 -4 8 -4 30 -2
56 -18 71 -33 29z"/>
<path d="M1235 3580 c-11 -18 51 -81 131 -132 7 -4 17 -1 24 7 10 12 9 16 -6
22 -11 3 -22 11 -26 17 -5 7 -8 4 -8 -7 0 -15 -2 -16 -14 -5 -9 8 -11 17 -5
24 11 13 -27 48 -62 59 -11 4 -17 11 -14 16 4 5 2 9 -4 9 -5 0 -13 -5 -16 -10z
m35 -30 c0 -5 -2 -10 -4 -10 -3 0 -8 5 -11 10 -3 6 -1 10 4 10 6 0 11 -4 11
-10z"/>
<path d="M6981 3454 c0 -11 3 -14 6 -6 3 7 2 16 -1 19 -3 4 -6 -2 -5 -13z"/>
<path d="M1415 3450 c3 -5 8 -10 11 -10 2 0 4 5 4 10 0 6 -5 10 -11 10 -5 0
-7 -4 -4 -10z"/>
<path d="M1520 3436 c0 -17 -88 -27 -94 -11 -2 5 -7 7 -11 2 -16 -14 28 -35
54 -26 13 6 30 8 38 5 7 -3 13 -1 13 4 0 5 10 10 23 12 l22 3 -22 13 c-19 11
-23 10 -23 -2z"/>
<path d="M1475 3390 c-3 -6 1 -7 9 -4 18 7 21 14 7 14 -6 0 -13 -4 -16 -10z"/>
<path d="M1580 3390 c0 -5 5 -10 10 -10 6 0 10 5 10 10 0 6 -4 10 -10 10 -5 0
-10 -4 -10 -10z"/>
<path d="M1690 3330 c0 -5 5 -10 10 -10 6 0 10 5 10 10 0 6 -4 10 -10 10 -5 0
-10 -4 -10 -10z"/>
<path d="M1730 3330 c20 -13 33 -13 25 0 -3 6 -14 10 -23 10 -15 0 -15 -2 -2
-10z"/>
<path d="M1620 3326 c0 -2 9 -6 20 -9 11 -3 18 -1 14 4 -5 9 -34 13 -34 5z"/>
<path d="M1684 3296 c11 -9 24 -16 30 -16 12 0 7 5 -24 19 -24 11 -24 11 -6
-3z"/>
<path d="M1873 3253 c9 -2 23 -2 30 0 6 3 -1 5 -18 5 -16 0 -22 -2 -12 -5z"/>
<path d="M4778 3143 c7 -3 16 -2 19 1 4 3 -2 6 -13 5 -11 0 -14 -3 -6 -6z"/>
<path d="M2753 3113 c-29 -2 -53 -9 -53 -14 0 -6 20 -50 45 -97 68 -132 177
-264 297 -359 127 -101 162 -122 181 -111 24 13 50 6 53 -14 1 -11 -3 -15 -13
-11 -12 5 -12 7 -1 14 9 6 7 9 -9 9 -12 0 -25 -4 -28 -10 -3 -5 -1 -10 6 -10
7 0 34 -14 60 -31 26 -16 60 -32 75 -35 14 -3 39 -11 54 -19 23 -12 27 -12 27
0 0 8 -3 14 -6 13 -25 -2 -32 6 -11 13 19 6 15 7 -16 3 -39 -5 -43 -3 -57 25
-9 17 -11 31 -6 31 5 0 9 43 9 95 l0 95 48 2 c26 0 56 0 66 -1 16 -1 15 2 -7
20 -15 11 -27 29 -27 39 0 21 -42 40 -48 21 -5 -16 -27 -14 -42 4 -9 10 -9 15
-1 15 6 0 11 -5 11 -11 0 -6 6 -9 13 -6 6 2 11 9 10 15 -2 7 5 9 15 6 9 -3 1
5 -18 17 -19 13 -37 26 -40 29 -3 3 -32 27 -65 52 -33 25 -70 56 -83 68 -12
11 -27 18 -32 15 -5 -3 -7 1 -4 9 6 15 -32 43 -51 37 -5 -1 -7 1 -2 5 4 4 -9
25 -30 46 l-37 38 -116 -2 c-63 -1 -139 -3 -167 -5z m541 -258 c-4 -8 -8 -15
-10 -15 -2 0 -4 7 -4 15 0 8 4 15 10 15 5 0 7 -7 4 -15z m42 -32 c-7 -7 -26 7
-26 19 0 6 6 6 15 -2 9 -7 13 -15 11 -17z m-9 -29 c-3 -3 -12 -4 -19 -1 -8 3
-5 6 6 6 11 1 17 -2 13 -5z m27 -69 c3 -8 1 -15 -4 -15 -6 0 -10 7 -10 15 0 8
2 15 4 15 2 0 6 -7 10 -15z m-24 -235 c0 -5 -7 -7 -15 -4 -8 4 -15 8 -15 10 0
2 7 4 15 4 8 0 15 -4 15 -10z"/>
<path d="M3460 2740 c35 -24 54 -31 30 -11 -14 11 -29 21 -35 21 -5 0 -3 -5 5
-10z"/>
<path d="M3522 2724 c10 -10 20 -15 24 -12 3 4 -5 12 -18 18 -22 12 -22 12 -6
-6z"/>
<path d="M3470 2450 c0 -6 7 -10 15 -10 8 0 15 2 15 4 0 2 -7 6 -15 10 -8 3
-15 1 -15 -4z"/>
<path d="M3486 2415 c10 -8 23 -15 28 -15 6 0 1 7 -10 15 -10 8 -23 15 -28 15
-6 0 -1 -7 10 -15z"/>
<path d="M3597 2369 c7 -7 15 -10 18 -7 3 3 -2 9 -12 12 -14 6 -15 5 -6 -5z"/>
<path d="M3678 2353 c7 -3 16 -2 19 1 4 3 -2 6 -13 5 -11 0 -14 -3 -6 -6z"/>
<path d="M5913 7091 c-75 -54 -103 -158 -64 -231 23 -45 85 -87 136 -95 l40
-6 -36 20 c-84 46 -110 119 -72 199 41 87 120 129 182 97 39 -20 46 -36 33
-75 -14 -38 -3 -38 33 0 l29 31 -29 24 c-88 72 -184 86 -252 36z"/>
<path d="M2069 7084 c-19 -14 -39 -29 -46 -32 -9 -6 -4 -39 22 -135 18 -70 31
-127 28 -127 -2 0 -51 29 -108 65 -57 36 -107 65 -110 65 -6 0 -71 -46 -90
-63 -6 -6 -2 -8 11 -5 12 3 26 3 31 -1 5 -3 47 -57 92 -119 69 -94 81 -115 71
-127 -24 -28 -2 -27 34 2 39 31 46 44 18 37 -12 -4 -35 18 -82 82 -36 48 -68
93 -73 100 -4 7 50 -22 119 -63 72 -44 129 -72 134 -67 5 5 -6 68 -26 148 -19
76 -33 140 -32 142 2 1 36 -42 77 -97 60 -83 71 -102 60 -115 -25 -30 -1 -22
55 19 55 40 56 42 31 45 -38 5 -203 226 -184 248 21 26 4 25 -32 -2z"/>
<path d="M6266 6956 c5 -22 -7 -42 -85 -135 -76 -90 -95 -108 -114 -104 -17 3
-10 -7 28 -41 52 -49 72 -58 56 -27 -9 17 13 51 85 130 4 4 114 -91 114 -99 0
-3 -21 -29 -46 -58 -35 -39 -51 -51 -65 -47 -33 11 -20 -9 36 -53 l55 -43 -5
28 c-4 24 8 44 85 136 82 98 93 107 118 101 l27 -5 -25 19 c-14 11 -38 32 -55
46 -35 30 -50 34 -36 8 7 -14 1 -27 -32 -65 l-42 -46 -57 48 -56 48 36 46 c29
37 42 46 60 42 35 -8 26 7 -33 54 -53 40 -55 41 -49 17z"/>
<path d="M5616 6907 c-28 -21 -12 -59 22 -55 41 5 42 67 1 68 -3 0 -13 -6 -23
-13z"/>
<path d="M1527 6752 c-11 -12 -17 -35 -16 -63 l0 -44 22 45 c16 33 31 48 54
55 50 17 50 25 1 25 -31 0 -50 -6 -61 -18z"/>
<path d="M1585 6691 c-3 -6 22 -79 55 -163 44 -108 60 -161 56 -180 -7 -36 -2
-35 39 6 39 37 44 50 16 41 -15 -5 -24 1 -35 24 -22 42 -20 53 18 90 l33 32
37 -18 c30 -14 37 -22 33 -40 -2 -13 -1 -23 2 -23 4 0 31 25 61 55 53 54 54
55 25 49 -25 -4 -60 9 -178 65 -80 39 -149 71 -151 71 -3 0 -7 -4 -11 -9z
m108 -112 c23 -12 44 -23 46 -25 3 -2 -8 -18 -24 -34 l-29 -31 -23 52 c-31 71
-33 69 30 38z"/>
<path d="M6677 6585 c4 -17 -17 -64 -71 -164 -42 -76 -76 -145 -76 -151 0 -18
40 -8 191 46 93 33 138 45 159 40 39 -7 38 2 -3 42 -39 38 -44 39 -43 11 1
-18 -14 -27 -99 -59 -55 -21 -102 -37 -104 -35 -2 2 21 47 50 100 48 88 55 96
77 90 21 -5 18 1 -23 50 -52 61 -65 67 -58 30z"/>
<path d="M1395 6494 c-28 -33 -65 -76 -84 -96 -64 -70 -65 -75 -34 -95 15 -10
31 -22 35 -28 14 -18 9 15 -7 44 -13 26 -13 30 10 51 28 27 23 29 148 -78 93
-80 98 -87 92 -116 -6 -30 -5 -30 39 19 53 57 71 85 57 85 -5 0 -13 -4 -16
-10 -11 -18 -29 -10 -86 38 -30 26 -79 67 -107 91 -29 24 -52 46 -52 50 1 3 9
17 20 30 18 20 23 22 52 12 17 -6 33 -10 34 -8 2 2 -9 18 -24 36 l-28 33 -49
-58z"/>
<path d="M6945 6290 c6 -24 -3 -32 -88 -94 -98 -70 -127 -105 -127 -153 1 -63
80 -153 137 -153 32 0 94 32 177 93 58 42 72 48 88 38 24 -15 23 -8 -9 41 -27
40 -28 41 -31 16 -4 -34 -166 -148 -221 -155 -33 -5 -41 -1 -64 27 -31 37 -35
78 -9 109 9 11 55 48 102 81 65 46 91 59 109 55 22 -6 21 -3 -15 47 -51 73
-56 77 -49 48z"/>
<path d="M1086 6107 c-86 -112 -86 -215 0 -285 76 -63 157 -64 228 -1 37 32
86 108 86 133 0 9 -22 31 -50 48 -38 25 -48 37 -44 52 11 34 -15 12 -50 -44
-37 -59 -39 -68 -9 -49 17 10 27 7 66 -16 26 -15 47 -29 47 -32 0 -16 -44 -62
-70 -73 -37 -15 -91 -3 -152 36 -76 48 -101 136 -55 190 21 24 27 26 54 16 17
-6 34 -8 37 -4 7 6 -43 62 -55 62 -5 0 -19 -15 -33 -33z"/>
<path d="M6683 5934 c-6 -17 6 -45 23 -51 5 -2 19 3 29 11 16 12 18 18 9 33
-15 24 -52 29 -61 7z"/>
<path d="M902 5795 c-23 -48 -22 -52 6 -34 15 9 35 3 107 -34 l89 -44 -94 -22
c-52 -11 -118 -26 -146 -31 -46 -10 -52 -15 -72 -55 -23 -48 -22 -52 6 -34 15
9 42 -1 149 -55 114 -56 131 -68 126 -86 -3 -11 -3 -20 0 -20 10 0 47 67 47
85 0 16 -2 17 -17 3 -17 -15 -27 -12 -121 35 -62 31 -97 54 -90 58 7 4 81 21
165 40 92 19 154 38 157 46 4 9 -39 36 -134 83 -110 55 -140 74 -140 90 0 33
-15 23 -38 -25z"/>
<path d="M7136 5780 c-75 -23 -136 -96 -136 -164 0 -67 59 -166 99 -166 10 0
6 9 -14 30 -40 41 -46 112 -13 159 48 72 180 109 229 65 12 -10 28 -31 35 -47
14 -26 13 -29 -18 -57 -35 -32 -25 -38 31 -19 37 13 38 19 7 84 -47 99 -128
142 -220 115z"/>
<path d="M7235 5461 c-76 -34 -116 -107 -100 -183 11 -54 65 -126 108 -143 84
-34 187 -2 240 75 33 47 15 162 -35 220 -45 53 -136 66 -213 31z m190 -47 c22
-9 45 -56 45 -93 0 -40 -39 -84 -98 -109 -107 -46 -172 -38 -198 24 -28 67 5
120 101 159 59 24 117 31 150 19z"/>
<path d="M728 5420 c-21 -53 -23 -69 -6 -52 7 7 19 12 27 12 31 0 206 -71 228
-92 31 -29 30 -78 -1 -114 -32 -38 -68 -35 -195 11 -83 31 -101 41 -101 58 0
31 -12 13 -36 -54 -23 -64 -23 -65 4 -48 15 9 39 5 121 -25 130 -46 163 -46
206 -3 30 30 55 88 55 127 0 29 -40 79 -77 98 -21 10 -75 32 -120 47 -72 25
-82 31 -85 54 -3 23 -5 21 -20 -19z"/>
<path d="M7480 5434 c8 -10 22 -27 32 -37 12 -12 18 -33 18 -64 0 -50 10 -49
28 4 15 45 6 67 -36 89 -56 28 -58 29 -42 8z"/>
<path d="M7548 5098 c-3 -19 -19 -26 -142 -57 -133 -33 -140 -33 -152 -16 -20
27 -24 16 -11 -38 10 -47 27 -64 27 -28 0 16 19 23 110 46 61 15 113 26 115
23 2 -2 -41 -62 -95 -133 -55 -72 -99 -136 -100 -142 0 -18 12 -17 171 22 133
32 145 33 156 18 19 -25 22 -13 10 40 -10 47 -27 64 -27 28 0 -22 -8 -25 -98
-46 -37 -9 -75 -18 -86 -21 -11 -4 17 41 72 113 l90 120 -11 46 c-11 50 -24
61 -29 25z"/>
<path d="M640 5029 c-36 -13 -56 -52 -80 -154 -21 -89 -20 -112 3 -82 12 17
14 16 275 -48 14 -3 22 -13 22 -27 0 -34 16 -9 29 44 15 64 15 73 -3 59 -11
-9 -29 -9 -76 1 -73 15 -77 35 -10 55 133 41 134 42 150 111 8 34 4 41 -14 18
-11 -15 -166 -69 -174 -62 -2 3 -11 19 -20 37 -20 39 -66 60 -102 48z m53 -80
c30 -16 37 -28 37 -66 0 -37 -1 -38 -82 -21 -52 11 -58 15 -58 37 0 51 52 76
103 50z"/>
<path d="M503 4558 c-10 -79 -18 -144 -17 -146 1 -2 21 -6 43 -8 48 -6 54 8
10 26 -28 12 -30 16 -24 49 4 20 8 37 8 38 3 2 199 -25 252 -35 31 -5 41 -12
43 -30 7 -44 19 -20 29 56 5 42 8 79 6 82 -4 4 -19 -16 -26 -34 -2 -5 -69 -1
-150 10 -156 19 -155 19 -141 72 4 12 14 22 24 22 10 0 26 3 35 6 14 6 10 10
-15 20 -18 8 -38 14 -45 14 -9 0 -19 -45 -32 -142z"/>
<path d="M7454 4693 c-12 -2 -40 -20 -62 -39 -61 -52 -74 -132 -40 -242 l10
-33 60 7 c53 6 63 4 75 -11 12 -17 13 -16 12 16 0 19 -4 54 -8 79 -8 45 -8 45
-19 18 -6 -16 -19 -28 -29 -28 -10 0 -35 -3 -55 -6 l-38 -7 0 48 c0 41 5 52
34 80 73 69 236 60 265 -14 27 -68 25 -79 -14 -98 -35 -17 -36 -18 -14 -24 13
-4 35 -7 48 -8 23 -1 24 0 18 63 -3 36 -12 79 -20 98 -35 83 -119 121 -223
101z"/>
<path d="M608 3738 l-3 -92 -85 -22 -85 -21 45 -20 c25 -11 62 -26 84 -33 l38
-12 -7 -57 c-3 -31 -9 -72 -12 -91 l-5 -35 33 40 c19 22 46 53 61 70 l26 30
44 -17 c23 -9 60 -23 81 -32 20 -9 37 -13 37 -8 0 4 -18 36 -40 70 -22 33 -40
65 -40 69 0 4 23 37 51 73 28 35 47 66 42 67 -5 2 -42 -5 -83 -16 -41 -10 -78
-17 -81 -15 -4 2 -25 35 -48 74 -23 38 -44 70 -46 70 -2 0 -6 -41 -7 -92z"/>
<path d="M7523 3815 c-5 -11 -20 -49 -33 -84 l-23 -64 -91 7 -91 6 25 -22 c14
-13 46 -40 70 -61 l44 -37 -37 -69 c-20 -38 -37 -72 -37 -75 0 -4 34 11 76 34
l75 42 27 -23 c15 -13 46 -42 70 -64 l43 -40 -6 30 c-4 17 -11 46 -15 65 -22
94 -27 82 58 136 l77 49 -92 9 -92 9 -11 56 c-7 31 -15 70 -19 86 -7 28 -8 29
-18 10z"/>
<path d="M1065 2760 c6 -18 -10 -28 -126 -85 -124 -60 -134 -63 -151 -48 -25
22 -23 8 9 -64 28 -61 51 -85 39 -40 -5 20 2 27 48 49 l54 27 12 -30 c18 -43
75 -89 111 -89 36 0 84 23 93 45 14 37 4 84 -36 167 -23 49 -45 88 -50 88 -5
0 -6 -9 -3 -20z m51 -114 c3 -14 4 -32 2 -42 -4 -23 -64 -64 -94 -64 -21 0
-64 41 -64 61 0 11 110 68 132 69 11 0 20 -10 24 -24z"/>
<path d="M7092 2725 c-23 -48 -25 -67 -3 -41 11 13 25 9 103 -30 50 -25 88
-47 86 -49 -2 -3 -58 -16 -124 -30 -159 -34 -152 -31 -174 -75 -25 -49 -25
-53 0 -38 17 11 37 4 150 -52 119 -59 130 -67 125 -87 -9 -39 10 -25 33 22 27
55 27 63 3 41 -17 -15 -24 -13 -125 39 -59 30 -106 55 -104 56 2 0 77 17 168
37 117 26 165 41 165 51 0 8 -59 44 -135 83 -112 57 -136 74 -140 95 -5 24 -7
22 -28 -22z"/>
<path d="M1200 2488 c0 -21 -19 -36 -122 -101 -78 -48 -127 -72 -133 -66 -5 5
-15 9 -22 9 -7 0 3 -25 25 -60 37 -60 54 -76 45 -41 -5 19 10 32 88 79 l36 22
37 -59 c20 -32 36 -63 36 -68 0 -4 -26 -24 -58 -45 -41 -25 -63 -33 -73 -27
-30 19 -28 7 8 -51 39 -62 58 -77 48 -37 -5 19 9 31 117 98 119 74 124 76 147
60 28 -18 27 -13 -19 61 -38 62 -50 71 -43 36 3 -19 -5 -29 -43 -51 -26 -15
-52 -26 -59 -23 -19 7 -79 117 -68 125 64 43 86 52 109 47 25 -7 25 -6 -12 51
-46 73 -44 71 -44 41z"/>
<path d="M6803 2365 c-28 -12 -33 -19 -33 -47 0 -50 11 -83 21 -66 5 7 9 25 9
40 0 21 10 34 40 54 22 15 40 28 40 30 0 9 -48 2 -77 -11z"/>
<path d="M6854 2296 c-3 -8 38 -76 90 -152 56 -81 96 -149 96 -163 0 -23 2
-22 30 15 29 39 41 69 18 46 -18 -18 -25 -15 -53 23 l-27 34 23 41 c19 33 28
40 54 40 33 0 60 -16 67 -39 2 -7 20 11 41 43 42 63 45 71 18 55 -14 -10 -49
-5 -172 25 -85 21 -160 40 -167 42 -7 2 -15 -3 -18 -10z m131 -88 c25 -7 45
-17 45 -23 -1 -13 -37 -61 -42 -55 -78 101 -78 98 -3 78z"/>
<path d="M1415 2150 c5 -22 -6 -34 -80 -94 -47 -39 -92 -81 -101 -94 -33 -50
-13 -126 46 -175 60 -51 112 -47 189 14 l50 40 42 -31 c50 -36 79 -38 114 -7
l27 23 -20 24 c-18 23 -20 23 -36 7 -35 -34 -55 -40 -83 -21 l-27 17 32 28
c18 17 38 26 47 23 23 -9 17 8 -17 46 -29 34 -30 34 -24 8 5 -23 -2 -32 -60
-80 -108 -87 -127 -98 -160 -98 -20 0 -40 9 -57 26 -53 53 -37 97 68 182 105
87 102 85 126 71 l22 -11 -21 28 c-12 16 -35 45 -52 64 -28 32 -30 33 -25 10z"/>
<path d="M6732 2121 c-37 -46 -40 -56 -12 -41 17 9 30 4 83 -37 143 -111 166
-155 108 -214 -51 -50 -76 -42 -213 70 -57 46 -67 58 -62 78 4 13 4 23 2 23
-3 0 -26 -27 -52 -60 -26 -33 -43 -60 -37 -60 5 0 13 5 16 10 11 17 21 12 102
-54 100 -81 136 -99 177 -92 38 7 93 58 112 103 28 65 -1 112 -138 220 -48 38
-57 50 -52 69 8 33 2 30 -34 -15z"/>
<path d="M7172 2078 c-26 -26 -8 -58 33 -58 19 0 29 38 15 55 -15 18 -32 19
-48 3z"/>
<path d="M6467 1812 c-49 -50 -60 -70 -29 -53 15 8 27 2 63 -35 l43 -44 -54
-55 -55 -56 -43 46 c-34 36 -42 50 -36 68 5 17 -4 13 -44 -23 -57 -51 -61 -60
-29 -57 16 2 48 -24 120 -100 84 -87 98 -106 91 -125 l-7 -23 23 20 c13 11 39
35 59 54 34 31 35 33 10 27 -21 -4 -34 4 -77 47 l-52 53 55 54 55 54 50 -49
c45 -44 50 -53 44 -80 -6 -29 -4 -28 50 25 31 30 56 55 56 57 0 1 -12 0 -27
-3 -24 -5 -37 4 -94 63 -123 128 -131 140 -119 163 18 34 -3 23 -53 -28z"/>
<path d="M1850 1776 c0 -11 54 -106 60 -106 4 0 4 19 -1 43 -4 23 -8 48 -9 55
0 10 -50 19 -50 8z"/>
<path d="M1650 1718 c-140 -96 -130 -251 22 -329 68 -35 144 -18 204 46 33 35
34 36 63 20 41 -21 55 -19 91 11 l31 27 -22 23 -23 24 -29 -30 c-45 -46 -63
-37 -59 28 5 67 -28 127 -95 171 -60 40 -132 43 -183 9z m179 -33 c16 -8 34
-28 41 -45 19 -45 -9 -110 -74 -172 -58 -55 -98 -68 -143 -44 -67 34 -66 114
4 195 65 77 115 96 172 66z"/>
<path d="M6110 1495 c-57 -45 -106 -87 -107 -92 -4 -11 35 -63 47 -63 4 0 3
16 -3 35 -9 31 -8 36 14 54 13 11 27 20 30 21 8 0 167 -204 175 -225 4 -8 1
-22 -6 -30 -29 -35 2 -23 57 21 75 60 73 58 40 52 -26 -5 -35 3 -118 110 -92
120 -95 127 -48 152 12 7 24 4 42 -10 37 -29 40 -25 17 20 -11 22 -24 40 -28
39 -4 0 -54 -38 -112 -84z"/>
<path d="M2080 1475 c0 -7 5 -17 10 -20 10 -6 -8 -37 -107 -176 -43 -60 -59
-76 -74 -72 -29 8 -23 -4 18 -32 45 -30 57 -32 41 -6 -10 16 -2 32 53 114 35
52 67 93 70 91 4 -2 10 -58 14 -124 9 -160 18 -215 32 -215 7 0 46 49 87 109
94 136 102 145 127 139 29 -8 23 1 -26 36 -41 30 -61 31 -33 3 9 -9 -2 -31
-48 -98 l-59 -87 -7 74 c-4 41 -10 108 -13 149 -7 73 -8 76 -46 102 -28 20
-39 24 -39 13z"/>
<path d="M5785 1279 c-84 -44 -125 -101 -125 -171 1 -102 78 -188 169 -188 45
0 117 29 156 63 l38 33 -28 54 c-22 43 -25 58 -16 72 16 26 0 22 -63 -14 -58
-34 -72 -52 -33 -43 18 5 26 -3 49 -44 l28 -50 -22 -16 c-32 -22 -94 -19 -129
6 -42 29 -89 115 -89 162 0 91 77 150 125 97 28 -30 35 -24 21 18 -16 45 -29
48 -81 21z"/>
<path d="M2375 1201 c-40 -24 -61 -49 -80 -94 -43 -104 13 -204 143 -254 38
-14 45 -15 53 -2 5 8 19 32 32 54 17 30 29 39 45 38 12 -2 22 -1 22 2 0 8
-122 76 -128 71 -3 -3 1 -13 8 -22 12 -13 11 -21 -5 -52 -32 -62 -34 -63 -66
-47 -64 33 -74 116 -24 200 51 88 119 116 183 75 30 -18 32 -23 26 -55 -8 -42
3 -44 34 -5 l22 29 -33 25 c-75 57 -174 73 -232 37z"/>
<path d="M5528 1132 c-43 -19 -48 -29 -16 -34 16 -2 30 -23 59 -88 21 -46 36
-86 34 -88 -2 -2 -60 26 -129 63 l-126 67 -45 -19 c-50 -20 -58 -33 -21 -33
21 0 29 -12 59 -82 20 -46 46 -107 58 -135 23 -52 23 -53 3 -68 -26 -20 -8
-19 43 3 48 19 54 29 21 34 -17 2 -31 25 -65 102 -24 54 -42 101 -39 103 3 3
71 -29 152 -71 89 -46 151 -73 157 -67 5 5 -16 66 -53 151 -59 136 -61 142
-44 161 22 24 5 24 -48 1z"/>
<path d="M2810 1050 c0 -4 7 -10 15 -13 12 -5 11 -15 -6 -66 -18 -52 -24 -61
-45 -61 -13 0 -24 -4 -24 -10 0 -5 7 -10 15 -10 20 0 19 -14 -7 -87 -20 -54
-26 -63 -48 -64 -50 -1 161 -69 214 -69 96 0 169 79 170 187 1 44 -3 56 -29
83 -16 18 -41 38 -55 45 -44 23 -200 74 -200 65z m145 -64 c49 -21 69 -56 63
-116 -10 -106 -82 -189 -151 -176 -62 12 -64 17 -38 94 24 70 25 70 53 60 16
-6 32 -7 36 -3 4 4 2 10 -4 12 -6 2 -19 10 -30 17 -17 13 -17 15 1 70 11 31
23 56 27 56 5 0 24 -6 43 -14z"/>
<path d="M5189 984 c-14 -4 -14 -11 -6 -44 9 -33 8 -42 -8 -60 -10 -11 -24
-20 -30 -20 -15 0 -37 78 -24 86 5 3 9 9 9 14 0 5 -21 1 -47 -8 -37 -13 -43
-17 -26 -20 18 -3 26 -16 43 -75 12 -40 25 -85 31 -101 27 -84 -7 -146 -79
-146 -25 0 -45 7 -55 18 -18 20 -49 102 -73 196 -14 54 -14 59 3 73 17 13 17
14 -2 9 -102 -25 -152 -46 -108 -46 22 0 30 -16 68 -154 20 -73 39 -103 78
-123 37 -18 94 -11 148 19 60 33 73 88 44 183 -16 55 -18 51 26 73 50 26 73
64 62 98 -10 29 -24 36 -54 28z"/>
<path d="M3323 964 c-51 -22 -53 -37 -4 -29 36 6 48 3 82 -19 44 -29 50 -23
17 20 -12 16 -22 30 -22 30 -5 10 -48 9 -73 -2z"/>
<path d="M3210 878 c-48 -33 -80 -99 -80 -165 0 -94 44 -144 144 -165 123 -26
216 56 216 189 0 103 -68 163 -187 163 -46 0 -68 -5 -93 -22z m175 -21 c33
-28 41 -83 25 -160 -22 -110 -81 -156 -153 -122 -26 12 -39 27 -48 52 -22 66
7 188 56 237 24 24 89 21 120 -7z"/>
<path d="M4688 858 c-32 -6 -58 -14 -58 -19 0 -5 6 -9 14 -9 16 0 21 -14 30
-81 l7 -45 -73 -12 c-40 -6 -74 -9 -76 -8 -1 2 -7 30 -12 62 -9 51 -8 61 8 73
15 12 11 13 -32 7 -27 -3 -59 -6 -72 -6 -13 0 -24 -4 -24 -10 0 -5 9 -10 19
-10 24 0 25 -5 48 -163 17 -126 17 -129 -1 -143 -29 -20 -18 -22 57 -11 67 10
84 20 48 30 -14 3 -20 17 -26 58 -3 30 -9 61 -11 70 -5 19 9 24 97 34 l57 7 7
-73 c7 -64 5 -74 -11 -87 -17 -13 -12 -13 46 -7 66 7 117 24 73 25 -12 0 -24
3 -26 8 -3 4 -12 59 -21 122 -9 63 -19 127 -22 142 -4 20 -1 28 16 33 18 6 20
27 2 24 -4 -1 -33 -6 -64 -11z"/>
<path d="M3550 838 c0 -4 9 -10 21 -13 18 -6 20 -12 15 -48 -3 -23 -11 -90
-17 -149 -10 -95 -14 -108 -30 -108 -11 0 -19 -4 -19 -10 0 -5 12 -10 28 -10
15 0 37 -3 50 -6 13 -4 22 -2 22 5 0 6 -7 11 -16 11 -14 0 -15 10 -9 83 4 45
10 102 14 127 7 45 7 45 21 20 43 -79 174 -270 185 -270 13 0 15 14 36 204 10
91 15 109 31 114 33 8 19 20 -29 24 -55 5 -66 1 -39 -14 16 -9 18 -19 12 -92
-11 -124 -13 -128 -50 -70 -17 28 -53 84 -79 126 l-49 76 -49 4 c-27 1 -49 0
-49 -4z"/>
<path d="M4045 803 c-32 -8 -72 -41 -94 -77 -28 -44 -29 -137 -2 -186 33 -64
130 -100 226 -86 l45 7 0 59 c0 49 4 61 22 74 22 15 20 16 -32 17 -30 0 -63 2
-72 4 -23 4 -23 -7 0 -22 14 -8 18 -23 17 -64 -1 -47 -4 -54 -22 -57 -34 -5
-91 24 -106 55 -39 75 -28 183 24 235 25 25 35 29 76 26 44 -3 47 -5 56 -37 9
-38 21 -32 30 16 5 23 2 33 -9 37 -18 7 -130 6 -159 -1z"/>
</g>
</svg>
